<?xml version="1.0" standalone="no"?>
<!DOCTYPE svg PUBLIC "-//W3C//DTD SVG 1.1//EN" "http://www.w3.org/Graphics/SVG/1.1/DTD/svg11.dtd" >
<!--
2013-9-30: Created.
-->
<svg>
<metadata>
Created by iconfont
</metadata>
<defs>

<font id="iconfont" horiz-adv-x="1024" >
  <font-face
    font-family="iconfont"
    font-weight="500"
    font-stretch="normal"
    units-per-em="1024"
    ascent="896"
    descent="-128"
  />
    <missing-glyph />
    
    <glyph glyph-name="revocation" unicode="&#59085;" d="M640 0H384a64 64 0 1 0 0 128h256a192 192 0 0 1 0 384H384v-128L64 576l320 192v-128h256a320 320 0 0 0 0-640z"  horiz-adv-x="1024" />

    
    <glyph glyph-name="redo" unicode="&#59086;" d="M384 0h256a64 64 0 0 1 0 128H384a192 192 0 0 0 0 384h256v-128l320 192-320 192v-128H384a320 320 0 0 1 0-640z"  horiz-adv-x="1024" />

    
    <glyph glyph-name="clear" unicode="&#59088;" d="M987.2 465.152L650.048 128H468.992l156.16 156.096-181.056 181.056-230.4-230.4L320 128h640v-128H256L36.8 238.848l588.352 588.352z"  horiz-adv-x="1024" />

    
    <glyph glyph-name="bold" unicode="&#59089;" d="M832 192a256 256 0 0 0-256-256H256a64 64 0 0 0-64 64V768a64 64 0 0 0 64 64h256a254.72 254.72 0 0 0 194.368-420.8A254.976 254.976 0 0 0 832 192zM512 704H320v-256h192a128 128 0 0 1 0 256z m64-384H320v-256h256a128 128 0 0 1 0 256z"  horiz-adv-x="1024" />

    
    <glyph glyph-name="brush1" unicode="&#59090;" d="M892.8 738.304L666.496 512a128 128 0 0 0 0-180.992L395.008 602.496a128 128 0 0 0 180.992 0l226.304 226.304a64 64 0 1 0 90.496-90.496zM485.504-31.04L32.96 421.504l316.8 135.744 271.488-271.552z"  horiz-adv-x="1024" />

    
    <glyph glyph-name="Italic" unicode="&#59091;" d="M896 704h-208l-160-640H704a64 64 0 0 0 0-128H192a64 64 0 1 0 0 128h208l160 640H384a64 64 0 1 0 0 128h512a64 64 0 0 0 0-128z"  horiz-adv-x="1024" />

    
    <glyph glyph-name="strike" unicode="&#59092;" d="M793.6 704H576v-320h320a64 64 0 1 0 0-128H576v-192h64l128-128H256l128 128h64v192H128a64 64 0 1 0 0 128h320V704H230.4L192 512H64l64 320h768l64-320h-128z"  horiz-adv-x="1024" />

    
    <glyph glyph-name="underline" unicode="&#59093;" d="M832-64H192a64 64 0 1 0 0 128h640a64 64 0 0 0 0-128z m-320 192a320 320 0 0 0-320 320V768a64 64 0 1 0 128 0v-320a192 192 0 0 1 384 0V768a64 64 0 1 0 128 0v-320a320 320 0 0 0-320-320z"  horiz-adv-x="1024" />

    
    <glyph glyph-name="left" unicode="&#59095;" d="M896 448H128a64 64 0 1 0 0 128h768a64 64 0 1 0 0-128zM512 704H128a64 64 0 1 0 0 128h384a64 64 0 1 0 0-128zM128 320h384a64 64 0 1 0 0-128H128a64 64 0 1 0 0 128z m0-256h768a64 64 0 0 0 0-128H128a64 64 0 1 0 0 128z"  horiz-adv-x="1024" />

    
    <glyph glyph-name="center" unicode="&#59096;" d="M896 448H128a64 64 0 1 0 0 128h768a64 64 0 1 0 0-128z m-192 256H320a64 64 0 1 0 0 128h384a64 64 0 0 0 0-128z m-384-512a64 64 0 1 0 0 128h384a64 64 0 1 0 0-128H320z m-192-128h768a64 64 0 0 0 0-128H128a64 64 0 1 0 0 128z"  horiz-adv-x="1024" />

    
    <glyph glyph-name="right" unicode="&#59097;" d="M896 192H512a64 64 0 1 0 0 128h384a64 64 0 1 0 0-128z m0 256H128a64 64 0 1 0 0 128h768a64 64 0 1 0 0-128z m0 256H512a64 64 0 0 0 0 128h384a64 64 0 0 0 0-128zM128 64h768a64 64 0 0 0 0-128H128a64 64 0 1 0 0 128z"  horiz-adv-x="1024" />

    
    <glyph glyph-name="insert" unicode="&#59098;" d="M896 320H576v-320a64 64 0 0 0-128 0V320H128a64 64 0 1 0 0 128h320V768a64 64 0 1 0 128 0v-320h320a64 64 0 0 0 0-128z"  horiz-adv-x="1024" />

    
    <glyph glyph-name="leftindent" unicode="&#59099;" d="M896 320H512a64 64 0 1 0 0 128h384a64 64 0 0 0 0-128z m0 320H128a64 64 0 1 0 0 128h768a64 64 0 1 0 0-128z m-576-384L64 384l256 128v-256z m-192-128h768a64 64 0 0 0 0-128H128a64 64 0 1 0 0 128z"  horiz-adv-x="1024" />

    
    <glyph glyph-name="rightindent" unicode="&#59100;" d="M128 320h384a64 64 0 1 1 0 128H128a64 64 0 1 1 0-128z m0 320h768a64 64 0 1 1 0 128H128a64 64 0 1 1 0-128z m576-384l256 128-256 128v-256z m192-128H128a64 64 0 1 1 0-128h768a64 64 0 0 1 0 128z"  horiz-adv-x="1024" />

    
    <glyph glyph-name="image" unicode="&#59101;" d="M896-64H128a127.424 127.424 0 0 0-110.272 64H6.4l7.36 7.36A126.656 126.656 0 0 0 0 64V704a128 128 0 0 0 128 128h768a128 128 0 0 0 128-128v-640a128 128 0 0 0-128-128z m-176.448 128L421.504 298.048 251.456 64h468.096zM896 704H128v-582.4l293.504 357.44L896 64V704z m-192-128a64 64 0 1 0-64-64 64 64 0 0 0 64 64z"  horiz-adv-x="1024" />

    
    <glyph glyph-name="link" unicode="&#59102;" d="M874.048 293.504l-45.248-45.248a64 64 0 1 0-90.496 90.496L783.552 384A192 192 0 0 1 512 655.552l-45.248-45.248A64 64 0 0 0 376.256 700.8l45.248 45.248a320 320 0 0 0 452.544-452.544z m-497.792-45.248a64 64 0 0 0 0 90.496l180.992 180.992a64 64 0 0 0 90.496-90.496l-180.992-180.992a64 64 0 0 0-90.496 0zM285.696 429.248L240.448 384A192 192 0 0 1 512 112.448l45.248 45.248a64 64 0 0 0 90.496-90.496l-45.248-45.248a320 320 0 0 0-452.544 452.544l45.248 45.248a64 64 0 0 0 90.496-90.496z"  horiz-adv-x="1024" />

    
    <glyph glyph-name="copyrow" unicode="&#59103;" d="M896 0H384a128 128 0 0 0-128 128V384a128 128 0 0 0 128 128h512a128 128 0 0 0 128-128v-256a128 128 0 0 0-128-128z m0 384H384v-256h512V384z m-256 256H128v-384a64 64 0 0 0-128 0V640a128 128 0 0 0 128 128h512a64 64 0 0 0 0-128z"  horiz-adv-x="1024" />

    
    <glyph glyph-name="deleterow" unicode="&#59104;" d="M858.496 384l90.496-90.496a64 64 0 1 0-90.496-90.496L768 293.504l-90.496-90.496a64 64 0 1 0-90.496 90.496L677.504 384 587.008 474.496a64 64 0 0 0 90.496 90.496L768 474.496l90.496 90.496a64 64 0 0 0 90.496-90.496zM64 448h448v-128H64V448z m256 64a64 64 0 0 0-64 64V704H128a64 64 0 1 0 0 128h192a64 64 0 0 0 64-64v-192a64 64 0 0 0-64-64z m-192-448h128v128a64 64 0 1 0 128 0v-192a64 64 0 0 0-64-64H128a64 64 0 1 0 0 128z"  horiz-adv-x="1024" />

    
    <glyph glyph-name="pasterow" unicode="&#59105;" d="M832-64H512a128 128 0 0 0-128 128v128a128 128 0 0 0 128 128h320a128 128 0 0 0 128-128v-128a128 128 0 0 0-128-128z m0 256H512v-128h320v128z m-128 512H192v-576h128v-128H192a128 128 0 0 0-128 128V704a128 128 0 0 0 128 128h512a128 128 0 0 0 128-128v-320h-128V704z"  horiz-adv-x="1024" />

    
    <glyph glyph-name="toprow" unicode="&#59106;" d="M832-64H192a128 128 0 0 0-128 128V448a128 128 0 0 0 128 128h640a128 128 0 0 0 128-128v-384a128 128 0 0 0-128-128z m-384 128h128v128H448v-128zM320 448H192v-128h128V448z m0-256H192v-128h128v128z m128 128h128V448H448v-128z m384 128h-128v-128h128V448z m0-256h-128v-128h128v128z m64 512H128a64 64 0 1 0 0 128h768a64 64 0 1 0 0-128z"  horiz-adv-x="1024" />

    
    <glyph glyph-name="bottomrow" unicode="&#59107;" d="M832 192H192a128 128 0 0 0-128 128V704a128 128 0 0 0 128 128h640a128 128 0 0 0 128-128v-384a128 128 0 0 0-128-128zM448 320h128V448H448v-128zM320 704H192v-128h128V704z m0-256H192v-128h128V448z m128 128h128V704H448v-128z m384 128h-128v-128h128V704z m0-256h-128v-128h128V448z m64-512H128a64 64 0 1 0 0 128h768a64 64 0 0 0 0-128z"  horiz-adv-x="1024" />

    
    <glyph glyph-name="table" unicode="&#59108;" d="M768-64H256a192 192 0 0 0-192 192V640a192 192 0 0 0 192 192h512a192 192 0 0 0 192-192v-512a192 192 0 0 0-192-192z m0 128a64 64 0 0 1 64 64V320H576v-256h192z m-576 64a64 64 0 0 1 64-64h192V320H192v-192z m64 576a64 64 0 0 1-64-64v-192h256V704H256z m576-64a64 64 0 0 1-64 64H576v-256h256V640z"  horiz-adv-x="1024" />

    
    <glyph glyph-name="rightcolumn" unicode="&#59109;" d="M704 64V704a128 128 0 0 1-128 128H192a128 128 0 0 1-128-128v-640a128 128 0 0 1 128-128h384a128 128 0 0 1 128 128zM576 448v-128H448V448h128zM192 576V704h128v-128H192z m256 0V704h128v-128H448zM320 448v-128H192V448h128z m-128-384v128h128v-128H192z m256 0v128h128v-128H448z m512-64V768a64 64 0 0 1-128 0v-768a64 64 0 0 1 128 0z"  horiz-adv-x="1024" />

    
    <glyph glyph-name="split" unicode="&#59110;" d="M832-64H192a128 128 0 0 0-128 128V704a128 128 0 0 0 128 128h640a128 128 0 0 0 128-128v-640a128 128 0 0 0-128-128zM192 64h256v128H192v-128z m384 256V448H448v-128h128zM192 320h128V448H192v-128z m256 384H192v-128h256V704z m384 0H576v-128h256V704z m0-256h-128v-128h128V448z m0-256H576v-128h256v128z"  horiz-adv-x="1024" />

    
    <glyph glyph-name="leftcolumn" unicode="&#59111;" d="M320 64V704a128 128 0 0 0 128 128h384a128 128 0 0 0 128-128v-640a128 128 0 0 0-128-128H448a128 128 0 0 0-128 128z m128 384v-128h128V448H448z m384 128V704h-128v-128h128zM576 576V704H448v-128h128z m128-128v-128h128V448h-128z m128-384v128h-128v-128h128z m-256 0v128H448v-128h128z m-512-64V768a64 64 0 0 0 128 0v-768a64 64 0 0 0-128 0z"  horiz-adv-x="1024" />

    
    <glyph glyph-name="merge" unicode="&#59112;" d="M832-64H192a128 128 0 0 0-128 128V704a128 128 0 0 0 128 128h640a128 128 0 0 0 128-128v-640a128 128 0 0 0-128-128zM192 64h256v128H192v-128zM448 704H192v-128h256V704z m384 0H576v-128h256V704z m0-256H192v-128h640V448z m0-256H576v-128h256v128z"  horiz-adv-x="1024" />

    
    <glyph glyph-name="pastecolumn" unicode="&#59113;" d="M832-64h-128a128 128 0 0 0-128 128V384a128 128 0 0 0 128 128h128a128 128 0 0 0 128-128v-320a128 128 0 0 0-128-128z m0 448h-128v-320h128V384z m-128 320H192v-576h320v-128H192a128 128 0 0 0-128 128V704a128 128 0 0 0 128 128h512a128 128 0 0 0 128-128v-128h-128V704z"  horiz-adv-x="1024" />

    
    <glyph glyph-name="copycolumn" unicode="&#59114;" d="M768-128H512a128 128 0 0 0-128 128V512a128 128 0 0 0 128 128h256a128 128 0 0 0 128-128v-512a128 128 0 0 0-128-128z m0 640H512v-512h256V512zM576 768H256v-576a64 64 0 0 0-128 0V768a128 128 0 0 0 128 128h320a64 64 0 0 0 0-128z"  horiz-adv-x="1024" />

    
    <glyph glyph-name="deletecolumn" unicode="&#59115;" d="M512 44.8l-90.496-89.6a64.384 64.384 0 0 0-90.496 0 63.04 63.04 0 0 0 0 89.6l90.496 89.6-90.496 89.6a63.04 63.04 0 0 0 0 89.6 64.384 64.384 0 0 0 90.496 0L512 224l90.496 89.6a64.384 64.384 0 0 0 90.496 0 63.04 63.04 0 0 0 0-89.6l-90.496-89.6 90.496-89.6a63.04 63.04 0 0 0 0-89.6 64.448 64.448 0 0 0-90.496 0zM576 832v-444.032H448V832h128z m64-253.76a64 64 0 0 0 64 63.424h128V768.576a64 64 0 0 0 128 0v-190.336a64 64 0 0 0-64-63.424h-192a64 64 0 0 0-64 63.424zM192 768.576v-126.848h128a63.424 63.424 0 1 0 0-126.912H128a64 64 0 0 0-64 63.424V768.576a64 64 0 0 0 128 0z"  horiz-adv-x="1024" />

    
    <glyph glyph-name="A" unicode="&#59116;" d="M938.666667-42.666667l-85.333334 187.733334V128H341.333333v17.066667L256-42.666667H85.333333L512 896h170.666667l426.666666-938.666667h-170.666666zM597.333333 708.266667L411.136 298.666667h372.394667z"  horiz-adv-x="1194" />

    
    <glyph glyph-name="fill" unicode="&#59117;" d="M1034.427024-97.877485a124.131243 124.131243 0 0 0-124.131243 124.131243c0 68.520446 124.131243 206.885405 124.131243 206.885405S1158.558267 94.774204 1158.558267 26.253758a124.131243 124.131243 0 0 0-124.131243-124.131243z m-128.268951 321.003394l-351.125909-351.125909-351.125909 351.125909-58.507192 58.507193-58.507193 58.507192 351.125909 351.125909-95.084532 95.001778L467.312753 896l87.719411-87.719412 117.014385-117.014385 351.125909-351.125909-58.507192-58.507192zM555.032164 574.169064L262.496202 281.633102h585.154679z"  horiz-adv-x="1194" />

    
    <glyph glyph-name="cutrow" unicode="&#59118;" d="M832 512V576h64V640h64v-128h-128z m64 256h-64V832h128v-128h-64V768zM602.496 416L697.6 321.088A192 192 0 1 0 606.912 230.4L512 325.504 417.088 230.4A192 192 0 1 0 326.4 321.088L421.504 416 236.8 600.896A64 64 0 0 0 327.104 691.2L512 506.496 696.896 691.2A64 64 0 1 0 787.2 600.896z m131.904-312.896a64 64 0 1 1 0 90.496 64 64 0 0 1 0-90.496z m-444.8 90.496a64 64 0 1 1 0-90.496 64 64 0 0 1 0 90.496zM576 832h128v-64H576V832zM320 832h128v-64H320V832zM64 512V640h64v-64h64v-64H64z m64 192H64V832h128v-64H128v-64z"  horiz-adv-x="1024" />

    
    <glyph glyph-name="cutcolumn" unicode="&#59119;" d="M632.704 72.64h65.472v-62.464h65.472v-62.464H632.704v124.928z m261.824-62.464v62.464H960v-124.928h-130.944v62.464h65.472zM534.528 296.64l-97.152-92.672a180.544 180.544 0 0 0-37.76-212.736 203.072 203.072 0 0 0-277.696 0A181.376 181.376 0 0 0 121.6 256a202.88 202.88 0 0 0 222.912 36.032l97.408 92.928-97.088 92.672A202.88 202.88 0 0 0 121.6 513.664a181.376 181.376 0 0 0 0 265.024 203.072 203.072 0 0 0 277.696 0 180.544 180.544 0 0 0 37.76-212.736L534.528 473.6l189.12 180.48a67.712 67.712 0 0 0 92.608 0 60.48 60.48 0 0 0 0-88.32L627.2 384.96l189.12-180.48a60.48 60.48 0 0 0 0-88.32 67.712 67.712 0 0 0-92.608 0z m-320-128.704a60.48 60.48 0 0 1 0-88.32 67.712 67.712 0 0 1 92.608 0 60.48 60.48 0 0 1 0 88.32 67.712 67.712 0 0 1-92.672 0zM307.2 602.048a60.48 60.48 0 0 1 0 88.32 67.712 67.712 0 0 1-92.608 0 60.48 60.48 0 0 1 0-88.32 67.712 67.712 0 0 1 92.608 0zM960 322.496v-124.928h-65.472V322.496H960z m0 249.6v-124.672h-65.472V572.352H960z m-327.296 249.6h130.944v-61.952h-65.472V697.6H632.704V822.208z m196.352-62.464v62.976H960V697.6h-65.472v62.144h-65.472z"  horiz-adv-x="1024" />

    


  </font>
</defs>
</svg>
